# xmcd
#
# Track frame offsets:
#	182
#	14607
#	28492
#	42685
#	55890
#	66660
#	78592
#	89687
#	105217
#	118575
#	147355
#	160317
#	176797
#	190915
#	201977
#	214235
#
# Disc length: 3032 seconds
#
# Revision: 1
# Processed by: cddbd v1.5.2PL0 Copyright (c) Steve Scherf et al.
# Submitted via: audiograbber 1.83.01
#
DISCID=fc0bd610
DTITLE=Cab Calloway - The He-Di-Ho-Man
DYEAR=1997
DGENRE=Rhythm and Blues
TTITLE0=Minnie The Moocher 
TTITLE1=St. James Infirmary 
TTITLE2=A Smooth One
TTITLE3=St. Louis Blues
TTITLE4=Miss Hallelujah Brown
TTITLE5=The Boogie Woogie
TTITLE6=There's A Sunny Side To Everything
TTITLE7=The Viper's Drag
TTITLE8=Some Of These Days
TTITLE9=Ain't That Something
TTITLE10=The Jumpin' Jive
TTITLE11=I've Got You Under My Skin
TTITLE12=The Man From Harlem
TTITLE13=Ratamacue
TTITLE14=Pluckin' The Bass
TTITLE15=Come On With The Come On
EXTD=Main Solists: Chu Berry (saxo tenor): 5,15,16 - Jonah Jones (trumpet): 3 - J
EXTD=erry Blake (clarinet): 3, 16 - Cazy Cole (drums): 14 - Milton Jinton (bass):
EXTD=15 - Bill Bajangles (tap dancing): 10 -  Dizzy Gillespie (trumpet): 15, 16
EXTD=\n
EXTT0=Calloway, 03/03/1931
EXTT1=Primrose 23/12/1930
EXTT2=Goodman 03/11/1941
EXTT3=Handy 24/07/1930
EXTT4=Davis 30/08/1938
EXTT5=Davis 30/08/1938
EXTT6=Coots 30/08/1938
EXTT7=Waller 12/11/1930	
EXTT8=Brooks 23/12/1930
EXTT9=Calloway Early 1943
EXTT10=Callowa Early 1943
EXTT11=Porter Early 1943
EXTT12=Hudson 30/11/1932
EXTT13=Battle 20/02/1939
EXTT14=Eldridge 30/08/1939
EXTT15=Calloway 27/06/1940
PLAYORDER=
